# xmcd
#
# Track frame offsets: 
#        150
#        5822
#        19342
#        36024
#        58407
#        72856
#        85463
#        99140
#        116747
#        132307
#        153157
#        168297
#        183883
#        209487
#
# Disc length: 3006 seconds
#
# Revision: 1
# Processed by: cddbd v1.5.2PL0 Copyright (c) Steve Scherf et al.
# Submitted via: ExactAudioCopy v1.3
#
DISCID=bd0bbc0e
DTITLE=Bedrock Bluesband - Rock This Joint
DYEAR=2007
DGENRE=Blues
TTITLE0=Cookie jar
TTITLE1=Colorblind
TTITLE2=Let me hear the sound
TTITLE3=Autumn rain
TTITLE4=Roots by the snow
TTITLE5=Bedrock blues
TTITLE6=Swing me
TTITLE7=The devil and the Lord
TTITLE8=Cookie jar  II
TTITLE9=Crime to enjoy
TTITLE10=Tattle hill
TTITLE11=Make it groove
TTITLE12=Good times
TTITLE13=Trouble Up Ahead
EXTD=
EXTT0=
EXTT1=
EXTT2=
EXTT3=
EXTT4=
EXTT5=
EXTT6=
EXTT7=
EXTT8=
EXTT9=
EXTT10=
EXTT11=
EXTT12=
EXTT13=
PLAYORDER=
